<?xml version="1.0" encoding="UTF-8" standalone="no"?>
<!-- Created with Inkscape (http://www.inkscape.org/) -->

<svg
   xmlns:dc="http://purl.org/dc/elements/1.1/"
   xmlns:cc="http://creativecommons.org/ns#"
   xmlns:rdf="http://www.w3.org/1999/02/22-rdf-syntax-ns#"
   xmlns:svg="http://www.w3.org/2000/svg"
   xmlns="http://www.w3.org/2000/svg"
   xmlns:sodipodi="http://sodipodi.sourceforge.net/DTD/sodipodi-0.dtd"
   xmlns:inkscape="http://www.inkscape.org/namespaces/inkscape"
   id="svg4010"
   version="1.1"
   inkscape:version="0.91 r13725"
   width="375"
   height="375"
   viewBox="0 0 375 375"
   sodipodi:docname="attack_on_titan.svg">
  <metadata
     id="metadata4016">
    <rdf:RDF>
      <cc:Work
         rdf:about="">
        <dc:format>image/svg+xml</dc:format>
        <dc:type
           rdf:resource="http://purl.org/dc/dcmitype/StillImage" />
        <dc:title></dc:title>
      </cc:Work>
    </rdf:RDF>
  </metadata>
  <defs
     id="defs4014" />
  <sodipodi:namedview
     pagecolor="#ffffff"
     bordercolor="#666666"
     borderopacity="1"
     objecttolerance="10"
     gridtolerance="10"
     guidetolerance="10"
     inkscape:pageopacity="0"
     inkscape:pageshadow="2"
     inkscape:window-width="1600"
     inkscape:window-height="851"
     id="namedview4012"
     showgrid="false"
     inkscape:zoom="1.7946667"
     inkscape:cx="187.5"
     inkscape:cy="187.5"
     inkscape:window-x="0"
     inkscape:window-y="25"
     inkscape:window-maximized="1"
     inkscape:current-layer="svg4010" />
  <path
     style="fill:#000000"
     d="m 167.60621,290.20218 c -14.14418,-7.486 -14.22858,-7.55738 -10.96106,-9.2694 3.02567,-1.58531 4.00226,-1.36806 12.03522,2.67727 4.80829,2.42142 9.3189,4.40258 10.02356,4.40258 0.7226,0 1.2812,-3.05578 1.2812,-7.00874 0,-5.8775 0.31914,-6.88627 1.97724,-6.25 1.08748,0.41731 2.44031,0.75874 3.00629,0.75874 0.56599,0 0.91074,2.59092 0.76612,5.75761 -0.15836,3.46773 0.31894,5.9809 1.20009,6.31904 0.80466,0.30877 5.16381,-1.47279 9.68699,-3.95904 7.65082,-4.20542 8.45804,-4.3978 11.58295,-2.7605 3.35715,1.75899 3.35105,1.7642 -11.08505,9.45143 -7.94423,4.2303 -14.62755,7.63152 -14.85184,7.55827 -0.22429,-0.0733 -6.82205,-3.52801 -14.66171,-7.67726 z m 53.16537,-5.29315 -12.33856,-6.51563 5.46356,-1.40138 5.46355,-1.40139 8.11343,8.086 c 4.46239,4.4473 7.55614,8.00996 6.875,7.91701 -0.68114,-0.093 -6.79078,-3.10101 -13.57698,-6.68461 z m -79.19887,-3.42484 c 5.66714,-6.5484 8.36789,-8.4197 20.28742,-14.05679 18.125,-8.57182 18.60902,-8.73686 17.57063,-5.99145 -2.85124,7.53853 -6.25248,10.07005 -25.28065,18.81624 l -19.11483,8.78601 6.53743,-7.55401 z m -24.71258,-17.76937 -24.999991,-12.99973 0,-94.16372 0,-94.16374 8.471851,-0.166135 c 7.01428,-0.137551 8.681,0.224666 9.6875,2.105324 1.87866,3.510316 1.63709,3.685811 -5.07359,3.685811 -4.84894,0 -6.474056,0.500955 -7.096316,2.1875 -0.4439,1.20313 -1.37864,2.56909 -2.077199,3.03548 -0.845784,0.56469 -0.771844,1.94156 0.221324,4.12132 0.820286,1.80033 1.49143,8.30936 1.49143,14.46452 0,9.11438 -0.347953,11.19118 -1.875,11.19118 -2.328779,0 -2.328779,2.17623 0,6.25 2.141235,3.7457 2.525955,17.5 0.48949,17.5 -0.896297,0 -1.067753,1.21375 -0.485582,3.4375 0.49496,1.89062 1.259065,7.65625 1.69801,12.8125 l 0.798077,9.375 4.374996,0.41022 c 4.15439,0.38954 8.75,3.1974 8.75,5.34613 0,0.54664 -3.15309,1.16259 -7.00687,1.36877 l -7.006873,0.37488 0.191999,42.40415 c 0.1056,23.32227 0.449868,42.82137 0.765038,43.33134 0.31517,0.50996 6.616236,4.15082 14.002376,8.09082 7.38613,3.94 15.77066,9.07764 18.63228,11.41698 2.86163,2.33933 7.23467,4.58303 9.71785,4.986 2.4832,0.40297 4.83093,1.244 5.21717,1.86895 0.71271,1.15318 -1.66654,4.79676 -3.10352,4.75272 -0.43145,-0.0132 -12.03445,-5.87392 -25.78445,-13.02377 z m 86.92303,9.61031 c 0.0264,-0.51563 2.48814,-3.70656 5.4705,-7.09098 l 5.42246,-6.15347 10.93871,-0.57413 c 8.70752,-0.45703 10.82619,-0.23658 10.38707,1.08079 -1.07193,3.21578 -12.0957,11.4004 -16.83699,12.50065 -5.89353,1.36765 -15.44721,1.51494 -15.38175,0.23714 z m 29.43711,-5.88038 c 4.40975,-4.06841 12.80881,-9.67347 20.82736,-13.899 l 13.43751,-7.08112 0,-38.19975 c 0,-26.93189 0.45007,-39.4444 1.5258,-42.41928 1.9224,-5.31631 0.3779,-6.53682 -8.30618,-6.56383 l -6.15541,-0.0191 2.93578,-3.125 c 1.78818,-1.90341 4.31654,-3.125 6.4679,-3.125 3.31998,0 3.53293,-0.31908 3.54564,-5.3125 0.007,-2.92188 0.8512,-8.07378 1.875,-11.44866 2.34074,-7.71599 2.3382,-9.48884 -0.0135,-9.48884 -2.7405,0 -2.42141,-8.52119 0.60677,-16.20373 2.47567,-6.28085 2.47567,-6.29627 0,-6.29627 -2.2697,0 -2.48177,-0.85793 -2.48177,-10.04015 0,-6.22738 0.7335,-11.79566 1.93153,-14.66294 1.74204,-4.16927 1.74204,-4.76134 0,-6.03515 -1.06234,-0.7768 -1.93153,-2.33473 -1.93153,-3.462064 0,-1.626302 -1.29102,-2.049696 -6.25,-2.049696 -6.47656,0 -7.55477,-1.016664 -4.41164,-4.159793 1.24973,-1.24974 4.15146,-1.774651 9.06251,-1.639377 l 7.22413,0.198987 0.32039,93.973403 0.32039,93.97342 -22.96144,11.95167 c -12.62877,6.57343 -23.41088,11.95169 -23.96025,11.95169 -0.54935,0 2.32662,-3.06804 6.39104,-6.81788 z m -52.44914,4.28188 c 1.39473,-1.39473 24.63708,-9.964 27.02525,-9.964 0.8026,0 -1.02496,2.53125 -4.06125,5.625 l -5.52052,5.625 -9.36474,0 c -6.41794,0 -8.96007,-0.40466 -8.07874,-1.286 z m -41.45795,-3.86489 c -2.08832,-0.56814 -5.42793,-2.73535 -7.42136,-4.81604 l -3.62441,-3.78307 8.98386,0 8.98386,0 0,3.59695 c 0,4.72315 -2.17365,6.29394 -6.92195,5.00216 z m 43.64783,-5.16161 c 1.71467,-2.92188 4.69967,-6.11518 6.63335,-7.09621 6.00591,-3.04709 26.64077,-10.10583 26.64077,-9.11324 0,1.31504 -6.39517,10.70429 -8.03018,11.78975 -1.4063,0.93362 -26.3998,9.7322 -27.64559,9.7322 -0.39375,0 0.68699,-2.39063 2.40165,-5.3125 z m -32.34214,1.43909 c 0.50723,-1.65088 1.52809,-3.75692 2.26856,-4.68008 1.58964,-1.98182 33.36768,-18.09321 34.14795,-17.31292 0.29403,0.29402 -1.64196,3.28112 -4.3022,6.638 -4.04561,5.10503 -6.79031,6.97016 -16.77928,11.40213 -17.36075,7.70274 -16.41203,7.45819 -15.33503,3.95287 z m 64.38986,-8.31409 c 0.013,-0.51563 1.59714,-3.44121 3.52034,-6.50131 3.29516,-5.2431 4.19449,-5.79157 15.60139,-9.51474 6.65757,-2.17301 12.10467,-3.70815 12.10467,-3.41141 0,1.63215 -7.98686,11.78756 -10.20345,12.97385 -2.26187,1.21051 -19.52186,7.39111 -20.64048,7.39111 -0.22334,0 -0.39544,-0.42188 -0.38247,-0.9375 z m -72.5236,-1.1983 c -9.26548,-3.40196 -14.96983,-7.16233 -18.66008,-12.30091 -2.25747,-3.14347 -3.90433,-5.88014 -3.6597,-6.0815 0.56213,-0.4627 28.43843,8.7202 29.40458,9.68633 0.39342,0.39343 0.34104,2.71029 -0.11637,5.14859 -0.83038,4.42624 -2.39948,5.22504 -6.96841,3.54749 z m 12.5,-4.02676 c 0,-1.27077 0.98438,-3.44928 2.1875,-4.84114 2.55269,-2.95315 34.22495,-23.00053 35.04394,-22.18153 0.70955,0.70955 -4.34489,9.17738 -7.73981,12.9667 -1.43219,1.59855 -8.65369,5.93497 -16.0478,9.63647 -11.48224,5.74801 -13.44383,6.39286 -13.44383,4.4195 z m 31.52744,0.1045 c 6.39808,-12.89345 5.64175,-12.18537 19.61585,-18.36484 7.27744,-3.21816 13.93484,-6.13094 14.79421,-6.47285 2.39262,-0.95193 1.86958,2.23537 -1.35665,8.26717 -2.79956,5.23409 -3.54477,5.70208 -18.18896,11.42254 -8.39839,3.28068 -15.0874,5.59726 -14.86445,5.14798 z m -40.27574,-17.68824 c -1.6091,-3.4355 -2.63536,-6.53664 -2.2806,-6.89141 0.35478,-0.35478 2.75753,0.23761 5.33945,1.3164 3.89208,1.62622 4.56872,2.43016 3.95899,4.70391 -0.40446,1.50835 -0.74309,3.72684 -0.75247,4.92996 -0.0333,4.26758 -3.38135,2.09863 -6.26537,-4.05886 z m 76.85403,2.85515 c 0.49979,-1.22859 1.75535,-4.65233 2.79012,-7.60831 1.03479,-2.95599 3.11475,-6.18263 4.62215,-7.17032 5.62435,-3.68521 26.982,-9.51245 26.982,-7.36178 0,0.41136 -1.82275,3.28606 -4.05055,6.38821 -4.5862,6.38617 -10.28088,10.0923 -22.67657,14.75802 -7.61909,2.86783 -8.47449,2.97874 -7.66715,0.99418 z m -92.10479,-2.9741 c -7.83049,-3.06769 -10.80065,-5.05773 -15.9375,-10.67825 -3.47239,-3.79941 -6.31344,-7.42514 -6.31344,-8.05724 0,-2.53631 12.14117,-0.0639 22.50863,4.58361 6.48957,2.90915 7.03927,3.51317 9.60264,10.55147 1.82566,5.01272 2.23352,7.45006 1.24137,7.41817 -0.8127,-0.0261 -5.80846,-1.74414 -11.1017,-3.81782 z m 27.06033,1.56611 c 0.94522,-2.97811 9.95928,-11.84457 25.06373,-24.65327 8.74138,-7.41277 10.04869,-8.1503 10.38687,-5.85978 0.9156,6.20159 -4.30113,12.37229 -18.81395,22.25441 -16.69074,11.36512 -17.79688,11.91422 -16.63665,8.25864 z m 36.60832,-7.69237 c 3.20144,-7.41972 3.37616,-7.57588 18.21131,-16.27845 8.23838,-4.83279 15.1814,-8.58434 15.42895,-8.33679 0.7129,0.7129 -2.4044,8.51466 -5.68682,14.23259 -2.27481,3.96267 -4.5457,5.89251 -9.375,7.96698 -3.50516,1.50569 -9.70709,4.35078 -13.78204,6.32243 -4.07496,1.97159 -7.54849,3.58475 -7.71894,3.58475 -0.17045,0 1.14469,-3.37121 2.92254,-7.49158 z m -35.47461,-2.50849 c 0.42399,-1.71875 0.77857,-3.80678 0.78796,-4.64005 0.0203,-1.79544 14.96331,-19.87608 26.6412,-32.23495 7.35976,-7.78895 8.27245,-8.40676 8.30965,-5.625 0.0927,6.93314 -5.8464,15.49475 -21.24434,30.625 -11.07211,10.87964 -15.0536,14.14159 -14.49447,11.875 z m -10.08205,-2.45564 c -3.92649,-2.3941 -8.433,-9.5651 -10.46615,-16.65429 -0.56094,-1.95586 -0.57938,-3.37812 -0.041,-3.16058 0.53839,0.21752 4.16475,2.08301 8.05859,4.14551 l 7.07968,3.75 0.002,7.1875 c 0.001,3.95312 -0.13765,7.1854 -0.30952,7.18282 -0.17188,-0.002 -2.11794,-1.1055 -4.32458,-2.45096 z m -16.72844,-6.15725 c -10.28725,-4.02485 -22.16066,-13.7985 -27.73948,-22.83391 -1.55586,-2.51985 -1.67506,-3.46606 -0.49375,-3.91938 3.18038,-1.22042 15.45998,1.8916 22.70209,5.7534 6.95503,3.70873 7.54187,4.36515 8.38604,9.38064 0.49923,2.96608 1.77459,7.13061 2.83415,9.25455 2.85788,5.72874 2.88276,5.71839 -5.68905,2.3647 z m 96.42883,-4.19961 c 1.25133,-3.60938 2.6133,-8.14854 3.02658,-10.08704 1.01073,-4.7408 13.67035,-10.79376 24.65884,-11.79016 l 7.74496,-0.70229 -2.6247,4.14544 c -4.90447,7.74606 -14.49837,16.26341 -23.2516,20.64247 -11.80336,5.90498 -12.32512,5.78438 -9.55408,-2.20842 z m -32.49875,-3.75 c 0.59431,-2.23438 1.39313,-5.59745 1.77516,-7.47349 0.50842,-2.49675 3.11897,-5.03816 9.73994,-9.48194 12.71236,-8.53213 20.90763,-13.16145 21.7711,-12.29797 0.40581,0.40581 -0.52904,4.67785 -2.07745,9.49341 l -2.8153,8.75558 -14.22039,7.53345 c -7.82121,4.14341 -14.45286,7.53346 -14.73701,7.53346 -0.28414,0 -0.0304,-1.82813 0.56395,-4.0625 z m -36.31457,-3.80529 0,-7.15351 10.3125,-11.36884 c 5.67188,-6.25286 12.18728,-13.56057 14.47868,-16.23935 2.29139,-2.67879 4.58786,-4.87051 5.10327,-4.87051 0.51542,0 0.50567,3.17931 -0.0216,7.06515 -0.83591,6.15981 -1.74101,7.88169 -7.06345,13.4375 -3.35759,3.50479 -9.12353,10.0286 -12.81319,14.49735 -10.82271,13.10792 -9.99619,12.72492 -9.99619,4.63221 z m -12.5,-4.47046 c -4.99953,-3.01459 -5.94406,-4.34093 -8.4944,-11.92818 -1.57816,-4.69505 -2.61481,-8.79102 -2.30366,-9.10218 0.67864,-0.67863 7.14784,2.57781 13.61056,6.85125 4.53184,2.99665 4.6875,3.34312 4.6875,10.43347 0,4.03364 -0.42187,7.28968 -0.9375,7.23564 -0.51562,-0.054 -3.46875,-1.62454 -6.5625,-3.49 z m -21.9258,-10.03886 c -5.50717,-2.5886 -12.06964,-6.51229 -14.58329,-8.7193 -4.05543,-3.56072 -13.490901,-16.27427 -13.490901,-18.17793 0,-0.39911 2.079815,-0.72566 4.621801,-0.72566 3.0494,0 8.89683,2.13752 17.1875,6.28289 l 12.56569,6.28288 2.27578,9.46217 c 1.25167,5.2042 2.08692,9.65102 1.85611,9.88183 -0.23082,0.23083 -4.92552,-1.69827 -10.43269,-4.28688 z m 105.16014,-0.0337 c 0.94665,-2.74769 2.07294,-7.19553 2.50286,-9.8841 0.76667,-4.79447 1.0371,-5.01152 14.08474,-11.30395 11.75136,-5.66727 21.42807,-8.184 21.42807,-5.57303 0,1.87803 -7.6967,12.6163 -12.12136,16.91146 -4.281,4.15572 -18.01503,11.87587 -24.93457,14.01618 -2.61748,0.80962 -2.64019,0.71101 -0.95974,-4.16654 z m -34.48434,1.74845 c 0,-0.38434 0.91329,-4.33462 2.02953,-8.77838 1.8295,-7.28326 2.7227,-8.6708 9.0625,-14.07806 11.12695,-9.49026 22.0678,-17.73115 23.5404,-17.73115 1.64932,0 0.25044,6.88469 -3.35,16.48725 -2.27748,6.07411 -3.31328,7.14782 -12.19811,12.64472 -5.34013,3.30384 -11.81869,7.39015 -14.39682,9.0807 -2.57812,1.69055 -4.6875,2.75927 -4.6875,2.37492 z m -35.36585,-9.02509 c 0.77609,-7.92898 1.50503,-9.03229 19.42835,-29.40663 9.5055,-10.80537 9.68615,-10.93495 9.61547,-6.89657 -0.18328,10.47085 -1.52465,13.01506 -14.92797,28.31405 -7.21875,8.23971 -13.50623,15.02526 -13.97218,15.07897 -0.46595,0.0538 -0.5306,-3.1367 -0.14367,-7.08982 z M 148.07187,177.439 c -4.19812,-2.70517 -7.01569,-5.67226 -8.47677,-8.92666 -2.87219,-6.39746 -5.85405,-17.86041 -4.80845,-18.48477 0.45291,-0.27044 5.45598,2.96243 11.11793,7.1842 l 10.29447,7.67591 0.018,7.73872 c 0.01,4.2563 -0.40383,7.99205 -0.91945,8.30167 -0.51563,0.30961 -3.76722,-1.26047 -7.22577,-3.48907 z m 45.77781,-11.39821 c 0.70854,-5.2212 1.88845,-8.06612 4.48593,-10.81611 4.42117,-4.68076 26.46079,-23.23879 29.64685,-24.96355 2.1728,-1.17623 2.30255,-0.93054 1.54269,2.92115 -2.06127,10.44825 -6.76693,16.92954 -20.33255,28.00485 -7.22222,5.8964 -13.84524,10.99467 -14.71782,11.32952 -1.23421,0.47362 -1.37302,-0.96441 -0.6251,-6.47586 z m -66.72895,-0.28104 c -10.78889,-5.92815 -18.28051,-12.30695 -23.23005,-19.7794 -3.7718,-5.69436 -7.214385,-15.0755 -5.983826,-16.30605 0.68061,-0.68061 7.293306,2.5268 21.718776,10.53448 10.13037,5.62344 10.27642,5.774 11.09564,11.43867 0.45658,3.15713 1.87064,8.5192 3.14234,11.91573 1.27171,3.39651 2.16749,6.3202 1.99061,6.49707 -0.17686,0.17688 -4.10694,-1.75835 -8.73349,-4.3005 z m 105.34728,-1.80957 c 1.26151,-3.60938 2.67694,-9.15361 3.14541,-12.32053 0.84324,-5.70051 0.95361,-5.81263 11.04923,-11.22366 5.60862,-3.0061 12.86937,-6.71724 16.13499,-8.24696 5.5105,-2.58131 5.9375,-2.62004 5.9375,-0.5385 0,4.89152 -7.78266,17.64964 -14.52629,23.81292 -5.821,5.32007 -20.90818,15.07923 -23.31173,15.07923 -0.39752,0 0.30938,-2.95313 1.57089,-6.5625 z m -71.17844,-5.98214 c 0.11513,-14.44521 1.20321,-16.82866 13.03759,-28.55896 l 10.86697,-10.7714 -0.42842,9.43264 -0.42841,9.43263 -9.8849,11.81737 c -14.54308,17.38621 -13.22558,16.52063 -13.16283,8.64772 z m -12.68736,-4.05211 c -5.58294,-5.3494 -10.57229,-14.11679 -11.94798,-20.99525 -0.40237,-2.0119 -0.29251,-3.658 0.24417,-3.658 1.39237,0 9.15181,5.86282 14.64923,11.06857 4.36714,4.13543 4.6875,4.93404 4.6875,11.68512 0,3.98547 -0.46186,7.24631 -1.02637,7.24631 -0.5645,0 -3.53745,-2.40604 -6.60655,-5.34675 z m 45.13292,-8.9141 c 0.61422,-7.87476 0.77605,-8.17863 9.375,-17.60194 4.8125,-5.27387 11.789,-12.1916 15.50334,-15.37272 l 6.75334,-5.78388 -0.8911,7.87626 c -1.23838,10.94584 -2.47264,13.53983 -9.2201,19.37747 -3.24251,2.80528 -9.31825,8.34393 -13.50164,12.3081 -4.18339,3.96416 -7.83964,7.20806 -8.125,7.20867 -0.28536,6.3e-4 -0.23759,-3.60476 0.10613,-8.01196 z m -72.27,-9.43715 c -14.43163,-9.64669 -15.27837,-10.45686 -20.14738,-19.27734 -5.620053,-10.18104 -5.809274,-10.77466 -3.434486,-10.77466 9.455416,0 32.514066,15.02976 34.032606,22.18265 0.40194,1.89329 1.7973,6.51136 3.10083,10.26239 1.30351,3.75102 2.17723,7.01282 1.94161,7.24845 -0.23563,0.23563 -7.20756,-4.10304 -15.49318,-9.64149 z m 109.78824,3.65172 c 1.36498,-3.46295 2.48176,-7.96155 2.48176,-9.99688 0,-5.37867 17.08338,-18.80904 27.72199,-21.79408 4.12631,-1.15778 7.77097,-1.83648 8.09925,-1.5082 0.69616,0.69616 -5.07191,12.45316 -8.4825,17.28975 -1.97625,2.80255 -29.6382,22.30569 -31.63689,22.30569 -0.36595,0 0.45143,-2.83333 1.81639,-6.29628 z m -80.62045,-6.29272 c -6.21124,-5.87434 -6.81356,-6.96013 -8.21685,-14.81248 -0.83286,-4.6604 -1.26754,-9.2137 -0.96596,-10.11845 0.58436,-1.75308 16.68127,12.65565 21.15094,18.93272 l 2.47765,3.47953 -2.85928,4.41337 c -1.57261,2.42735 -3.31484,4.42032 -3.87161,4.42883 -0.55678,0.009 -4.02848,-2.83707 -7.71489,-6.32352 z m 38.10221,-6.52559 c 0,-11.37747 0.95015,-13.11169 15.16009,-27.67031 l 13.50864,-13.8401 0.0406,10.41326 0.0406,10.41326 -13.28133,12.71174 c -7.30472,6.99145 -13.77347,12.89924 -14.375,13.1284 -0.6015,0.22918 -1.09365,-2.09114 -1.09365,-5.15625 z m -29.38913,-11.19791 -10.53129,-10.3125 -0.14635,-6.875 c -0.307,-14.4209 -1.44566,-14.59629 15.59345,2.40191 l 15.52667,15.48939 -3.86088,4.80435 c -2.12348,2.64239 -4.3535,4.80435 -4.95559,4.80435 -0.6021,0 -5.8338,-4.64063 -11.62601,-10.3125 z m -34.36087,-1.99333 c -7.21875,-5.38885 -14.09142,-10.89591 -15.27261,-12.2379 -2.72445,-3.09534 -12.532184,-23.92492 -12.000743,-25.48707 0.550377,-1.61783 12.705953,4.1894 18.980453,9.06776 2.84235,2.2099 8.68353,7.08676 12.9804,10.83749 7.14862,6.24 7.81713,7.25208 7.86694,11.91002 0.0299,2.79979 0.51691,7.48115 1.08216,10.40303 0.56524,2.92187 0.68138,5.31072 0.25807,5.30855 -0.42332,-0.002 -6.67592,-4.41301 -13.89467,-9.80188 z m 102.60182,5.11833 c 0.5987,-2.57813 1.10196,-7.10984 1.11836,-10.07046 0.0246,-4.43628 0.74429,-6.05436 4.09232,-9.20056 7.61012,-7.15132 22.4536,-18.62642 27.27715,-21.08721 4.72804,-2.41207 8.66036,-3.1844 8.66036,-1.70096 0,2.08829 -10.47756,22.73064 -12.86758,25.35103 -3.11264,3.41266 -27.02029,21.39566 -28.44465,21.39566 -0.50848,0 -0.43465,-2.10938 0.16404,-4.6875 z m -45.39187,-4.59715 c -1.86513,-1.36383 -2.19455,-4.44769 -2.49208,-23.33095 l -0.34287,-21.7594 -21.18621,-0.343851 C 140.79786,68.011816 136.58813,67.58837 134.7659,65.93927 c -1.222,-1.105889 -1.92063,-2.498031 -1.55252,-3.093649 0.77647,-1.256349 98.43982,-1.498207 99.69115,-0.246881 0.45983,0.459834 -0.0961,1.866084 -1.23541,3.125 -1.85611,2.050991 -4.32535,2.28894 -23.75272,2.28894 -21.64563,0 -21.68129,0.0046 -21.69919,2.8125 -0.1967,30.85678 -0.48985,42.23655 -1.11404,43.24652 -0.47514,0.76878 -1.56246,0.64028 -2.90809,-0.34367 z m 39.04005,-22.25965 c 0,-10.25922 0.10763,-10.63562 4.58632,-16.0432 11.50881,-13.895726 25.50821,-26.1625 29.85781,-26.1625 1.82337,0 -0.40873,12.275006 -3.42018,18.80856 -3.54011,7.68054 -10.69822,16.05785 -22.79731,26.68026 l -8.22664,7.22258 0,-10.5057 z m -90.77728,-3.1432 C 116.56175,74.76426 111.52207,66.292962 110.29865,54.439114 l -0.69649,-6.748289 6.85016,4.381992 c 6.64749,4.252352 14.74063,12.085122 24.01825,23.245583 4.34739,5.22966 4.51456,5.79669 4.51456,15.3125 0,5.43495 -0.45866,9.88173 -1.01926,9.88173 -0.56059,0 -6.6392,-5.48438 -13.50802,-12.1875 z"
     id="path4020"
     inkscape:connector-curvature="0" />
</svg>
