<?xml version="1.0" encoding="UTF-8" standalone="no"?>
<!-- Created with Inkscape (http://www.inkscape.org/) -->

<svg
   xmlns:dc="http://purl.org/dc/elements/1.1/"
   xmlns:cc="http://creativecommons.org/ns#"
   xmlns:rdf="http://www.w3.org/1999/02/22-rdf-syntax-ns#"
   xmlns:svg="http://www.w3.org/2000/svg"
   xmlns="http://www.w3.org/2000/svg"
   xmlns:sodipodi="http://sodipodi.sourceforge.net/DTD/sodipodi-0.dtd"
   xmlns:inkscape="http://www.inkscape.org/namespaces/inkscape"
   id="svg3798"
   version="1.1"
   inkscape:version="0.91 r13725"
   width="500"
   height="500"
   viewBox="0 0 500 500"
   sodipodi:docname="dont_panic.svg">
  <metadata
     id="metadata3804">
    <rdf:RDF>
      <cc:Work
         rdf:about="">
        <dc:format>image/svg+xml</dc:format>
        <dc:type
           rdf:resource="http://purl.org/dc/dcmitype/StillImage" />
        <dc:title />
      </cc:Work>
    </rdf:RDF>
  </metadata>
  <defs
     id="defs3802" />
  <sodipodi:namedview
     pagecolor="#ffffff"
     bordercolor="#666666"
     borderopacity="1"
     objecttolerance="10"
     gridtolerance="10"
     guidetolerance="10"
     inkscape:pageopacity="0"
     inkscape:pageshadow="2"
     inkscape:window-width="1374"
     inkscape:window-height="748"
     id="namedview3800"
     showgrid="false"
     inkscape:zoom="0.944"
     inkscape:cx="386.48915"
     inkscape:cy="216.72615"
     inkscape:window-x="0"
     inkscape:window-y="25"
     inkscape:window-maximized="0"
     inkscape:current-layer="svg3798" />
  <path
     style="fill:#000000"
     d="m 257.57617,25.262215 c -11.20486,-0.0099 -22.37865,0.615853 -28.23633,1.88086 -17.7411,3.83132 -27.48269,7.887954 -49.21484,20.488281 -10.12942,5.873053 -11.66221,6.477923 -14,5.53125 -13.99043,-5.665352 -27.66279,-10.52674 -34.37695,-12.224609 -10.65283,-2.693875 -24.56799,-2.77646 -30.28907,-0.177735 -14.459986,6.568274 -14.824564,24.514191 -1.05273,51.935547 5.99474,11.936241 19.82665,32.284681 21.08789,31.023441 0.24448,-0.24447 1.93306,-3.71512 3.75195,-7.71484 l 3.30664,-7.27344 3.46094,4.82617 c 16.25064,22.65556 81.84961,90.03773 96.98242,99.61914 l 2.84375,1.79883 3.55469,-3.55469 c 4.89591,-4.89592 7.1624,-12.71792 5.68359,-19.61328 -1.47677,-6.88597 -3.15303,-9.8572 -12.08398,-21.42578 -10.30097,-13.34321 -13.34903,-18.49145 -17.40625,-29.4043 -3.62849,-9.75968 -6.91363,-14.19959 -16.08789,-21.74218 -8.21107,-6.7507 -14.39523,-9.34259 -23.7832,-9.96875 -13.76443,-0.91806 -16.06141,-2.85357 -11.72071,-9.876964 2.28821,-3.702383 7.3061,-7.406091 14.50391,-10.705076 7.09438,-3.251579 21.11587,-3.293822 27.14453,-0.08008 6.1224,3.263712 24.63179,18.774908 34.35547,28.789068 11.38239,11.72243 13.0385,12.87126 24.1543,16.74414 21.28763,7.41687 35.97269,20.75334 45.45898,41.28516 6.28187,13.59629 8.71209,24.91859 8.67969,40.45898 -0.0329,15.77671 -1.64082,23.04441 -8.80664,39.83594 l -4.55078,10.66406 2.60351,2 c 1.43183,1.1 8.31005,5.23909 15.28321,9.19727 6.97316,3.95817 13.73479,7.94957 15.02734,8.87109 l 2.34961,1.67578 -3.84961,2.34375 c -7.03967,4.28571 -8.14894,4.67237 -11.56641,4.03125 -1.85288,-0.3476 -8.29946,-3.59644 -14.32617,-7.2207 -6.0267,-3.62426 -12.21757,-7.24617 -13.75781,-8.04688 l -2.80078,-1.45508 -16.87696,16.61133 c -12.11269,11.9217 -16.44525,16.77683 -15.3496,17.19727 3.0353,1.16475 21.02892,-0.70513 29.82812,-3.09961 4.95,-1.34702 14.175,-4.28145 20.5,-6.51953 6.325,-2.23808 12.67136,-4.07313 14.10352,-4.07813 1.43216,-0.005 6.86103,1.98245 12.06445,4.41407 10.7677,5.03176 27.47627,11.05486 36.33203,13.09765 3.52666,0.81352 10.32835,1.29629 16.5,1.17188 8.97485,-0.18092 11.037,-0.54432 14.19922,-2.50196 7.96003,-4.92781 10.4601,-14.63311 7.35937,-28.57031 -1.9074,-8.57337 -10.70077,-27.27583 -18.65625,-39.67773 -5.75252,-8.96766 -5.80227,-7.18637 0.59571,-21.68946 7.80689,-17.69687 12.24509,-43.01367 11.14453,-63.57226 C 399.69628,124.20398 385.5498,92.313971 360.05859,66.822762 339.78962,46.553792 315.27145,33.43513 286,27.193856 280.01783,25.918337 268.78104,25.272165 257.57617,25.262215 Z M 125.72656,53.070809 c 9.79109,0.06214 23.55543,3.657632 31.13477,8.810547 2.19646,1.493298 2.17692,1.533511 -4.42383,9 -10.02669,11.341763 -16.10731,19.729433 -20.11719,27.75 -1.99355,3.987504 -3.74907,7.250004 -3.90039,7.250004 -1.23245,0 -7.28272,-9.147859 -10.91406,-16.500004 -9.84159,-19.925644 -9.80024,-30.971616 0.13086,-35.121094 2.00416,-0.83739 4.82615,-1.210166 8.08984,-1.189453 z m 205.28321,19.910156 c 1.66035,0.05491 3.24106,0.610904 5.13476,1.464844 4.63123,2.088394 11.18455,9.081462 14.10938,15.054688 2.35646,4.812478 1.87446,9.677209 -1.36914,13.800783 -2.85625,3.63114 -30.39397,27.25088 -35.83008,30.73242 -5.42778,3.4762 -11.10112,3.7448 -15.78321,0.7461 -3.73089,-2.38951 -12.0061,-12.99144 -12.89062,-16.51563 -1.80627,-7.19675 1.64096,-12.05511 18.95312,-26.708986 16.99779,-14.38777 22.69471,-18.73895 27.67579,-18.574219 z m 24.72265,35.195315 c 2.74406,0.10593 5.84926,1.32101 9.60547,3.70313 8.83042,5.60009 13.63775,17.03572 10.20508,24.26953 -1.11285,2.34516 -7.8878,8.62842 -20.77735,19.26953 -17.63838,14.56158 -19.48413,15.8226 -23.69726,16.18359 -5.46101,0.46791 -8.90144,-1.39647 -14.48242,-7.84179 -9.78881,-11.30483 -9.83821,-17.11727 -0.21875,-26.37891 8.03405,-7.73521 30.87363,-26.27421 34.75195,-28.20898 1.45077,-0.72374 2.96685,-1.05965 4.61328,-0.9961 z m -234.3418,18.73828 c -0.26469,-0.0208 -0.45234,0.11251 -0.59374,0.36524 -0.5089,0.90936 -2.10539,6.02867 -3.54688,11.37695 -2.41093,8.94519 -2.62138,11.32673 -2.64258,29.72461 -0.0213,18.49394 0.17266,20.7247 2.5918,29.61523 6.66774,24.50439 20.33911,48.45351 41.16016,72.10743 2.79733,3.17795 5.42593,5.77734 5.84179,5.77734 1.31508,0 51.06728,-45.38772 53.50195,-48.80859 1.03891,-1.45973 0.28801,-2.40584 -5.5,-6.92774 -17.85088,-13.94606 -63.79069,-60.63109 -80.33789,-81.64062 -6.71814,-8.52986 -9.32759,-11.49957 -10.47461,-11.58985 z m 241.19727,33.16992 c 3.84547,-0.14811 7.27222,1.60584 11.06641,5.50977 7.62312,7.84362 10.14633,15.41665 7.01367,21.05859 -1.99123,3.58621 -10.62004,12.14664 -17.02735,16.89063 -4.94357,3.66026 -6.58564,4.33612 -10.5,4.32812 C 342.85679,207.85062 333,197.09688 333,185.89698 c 0,-3.25187 0.82059,-4.75375 5.25,-9.61132 6.26051,-6.86566 15.39932,-13.80238 20.32422,-15.42774 1.40345,-0.46318 2.73185,-0.72406 4.01367,-0.77344 z m 16.23438,87.79688 c 1.52061,0 11.9239,16.83692 15.06445,24.38086 6.02789,14.47965 5.11952,25.04628 -2.42188,28.19726 -7.1601,2.99168 -20.48118,0.96334 -37.20117,-5.66601 -8.1529,-3.23255 -15.26472,-6.88839 -15.26172,-7.8457 9.8e-4,-0.31122 2.04627,-1.857 4.54493,-3.43555 6.81378,-4.30478 19.60903,-16.75537 27.49609,-26.75391 3.85146,-4.88254 7.35221,-8.87695 7.7793,-8.87695 z M 202.83203,346.2212 c -9.84829,-0.13944 -19.45588,2.53243 -26.48047,7.09375 l 52.58203,0 c -4.93333,-3.17706 -11.38934,-5.36472 -19.37695,-6.55273 -2.23528,-0.33246 -4.48583,-0.50932 -6.72461,-0.54102 z m -88.03125,1.0918 c -3.31865,-0.002 -6.83449,0.086 -10.55078,0.25977 l -13.25,0.61914 0,5.12304 57.81055,0 c -7.4343,-4.07087 -18.60399,-5.99449 -34.00977,-6.00195 z M 409,347.85402 l -31.75,0.26367 -31.75,0.26367 -0.2168,4.93359 63.7168,0 0,-5.46093 z m -162,0.0273 0,5.43359 26.09766,0 c -2.57462,-2.7201 -4.66734,-4.62021 -5.40625,-4.81836 -1.20555,-0.32328 -6.35391,-0.59356 -11.44141,-0.60156 l -9.25,-0.0137 z m 44.73047,0 0.2832,5.43359 21.98633,0 0,-5.43359 -11.13477,0 -11.13476,0 z m 34.26953,0 0,5.43359 14,0 0,-5.43359 -7,0 -7,0 z m -235,8.42969 0,8.73828 24,0 0,-4.43164 7.52734,0.48437 c 5.81293,0.37305 9.10715,1.40985 11.17774,3.94727 l 25.36914,0 c -1.17383,-3.43089 -3.11893,-6.33706 -5.89649,-8.73828 l -62.17773,0 z m 81.41602,0 c -2.28396,2.05629 -4.10867,4.3696 -5.32813,6.88867 -0.26987,0.55748 -0.50786,1.18584 -0.72656,1.84961 l 25.09961,0 c 2.92191,-3.42745 7.9385,-5.29956 12.59375,-5.11328 2.18709,0.0875 4.29334,0.62876 6.0625,1.67383 1.16965,0.69092 2.35292,1.93665 3.40234,3.43945 l 25.33008,0 c -1.34322,-3.34469 -3.35104,-6.25952 -6.0293,-8.73828 l -60.40429,0 z m 74.58398,0 0,8.73828 36.29883,0 c -1.62014,-1.86363 -3.30651,-3.8303 -4.96094,-5.81641 -0.84269,-1.01163 -1.6839,-1.9819 -2.51367,-2.92187 l -28.82422,0 z m 45.17188,0 0.27734,5.32031 0.17969,3.41797 21.37109,0 0,-8.73828 -21.82812,0 z m 33.82812,0 0,7.40429 c 0,0.46834 0.01,0.87398 0.0117,1.33399 l 13.98828,0 0,-0.66797 0,-8.07031 -14,0 z m 19.15234,0 -0.24218,5.5 10.29492,0.28515 10.29492,0.28516 0.0371,2.66797 23.92578,0 0.0371,-2.66797 9.75,-0.28711 9.75,-0.28516 0,-5.49804 -63.84766,0 z M 91,368.04542 l 0,6.44532 0,2.29296 24.02734,0 C 115.01786,375.88117 115,375.02947 115,374.08253 l 0,-6.03711 -24,0 z m 44.39062,0 c 0.24994,0.6444 0.47621,1.34058 0.68165,2.10352 0.61271,2.27542 0.73275,4.53726 0.43554,6.63476 l 23.81446,0 c 0.0641,-0.78315 0.10352,-1.58224 0.11132,-2.40234 0.0215,-2.26422 -0.16591,-4.37241 -0.55859,-6.33594 l -24.48438,0 z m 30.20118,0 c -0.51695,2.71867 -0.70625,5.80903 -0.5586,8.73828 l 24.08203,0 c -0.0711,-0.79919 -0.10844,-1.63602 -0.10937,-2.51757 -0.003,-2.88141 0.17641,-4.72958 0.6875,-6.22071 l -24.10156,0 z m 49.64843,0 c 1.05235,2.19182 1.75238,4.51798 1.73829,6.40235 -0.006,0.74111 -0.10591,1.53017 -0.26954,2.33593 l 23.98243,0 c 0.13643,-1.63612 0.11397,-3.31708 -0.11524,-5.04492 -0.17019,-1.28297 -0.43308,-2.50531 -0.75,-3.69336 l -24.58594,0 z m 31.75977,0 0,6.33594 0,2.40234 21.96875,0 c 0.12569,-1.08929 0.29976,-1.64791 0.52539,-1.57226 0.19213,0.0644 0.88017,0.71227 1.74219,1.57226 l 42.76367,0 0,-2.40234 0,-6.33594 -21.21484,0 0.38476,7.33594 -3.18945,-3 c -0.77017,-0.72454 -2.27768,-2.35559 -4.04688,-4.33594 l -38.93359,0 z m 79.03711,0 c 0.0423,3.50552 0.1322,6.54373 0.25,8.73828 l 13.71289,0 0,-8.73828 -13.96289,0 z m 39.54297,0 0.12304,8.73828 23.59376,0 0.12304,-8.73828 -23.83984,0 z M 91,379.7798 l 0,8.74023 25.875,0 c -0.6028,-0.0388 -1.03367,-0.13132 -1.19727,-0.29492 -0.27074,-0.27073 -0.503,-3.74785 -0.61132,-8.44531 l -24.06641,0 z m 44.75195,0 c -1.11961,3.00255 -3.22238,5.39687 -6.08007,6.55664 -2.79106,1.13273 -8.27362,2.07675 -11.50782,2.18359 l 38.2168,0 c 1.73996,-2.54256 2.92113,-5.45603 3.53906,-8.74023 l -24.16797,0 z m 29.57617,0 c 0.25849,1.83156 0.65519,3.52224 1.22266,4.88281 0.55814,1.33817 1.28745,2.6244 2.15039,3.85742 l 29.75195,0 c -1.30131,-0.20968 -2.4442,-0.53745 -3.26367,-0.99219 -2.88545,-1.60118 -4.72932,-4.13879 -5.59765,-7.74804 l -24.26368,0 z m 50.48438,0 c -1.29835,3.30866 -3.50126,6.40663 -5.68359,7.53515 -1.11216,0.57512 -2.66099,0.96434 -4.3418,1.20508 l 30.42187,0 c 1.94051,-2.64571 3.32542,-5.58018 4.0293,-8.74023 l -24.42578,0 z m 31.1875,0 0,8.74023 21.82031,0 -0.0156,-0.64062 c -0.0802,-3.41257 -0.068,-6.01929 -0.002,-8.09961 l -21.80273,0 z m 27.09961,0 c 1.17382,1.26945 2.42957,2.65176 3.77344,4.18359 1.28653,1.46648 2.66206,3.01637 4.02539,4.55664 l 32.10156,0 0,-8.74023 -39.90039,0 z m 52.44141,0 c 0.0402,0.22896 0.0822,0.39273 0.125,0.43554 0.36666,0.36667 3.51666,0.66602 7,0.66602 l 6.33398,0 0,-1.10156 -13.45898,0 z m 39.20507,0 0.0254,1.85156 0.0977,6.88867 23.26172,0 0.0977,-6.88867 0.0254,-1.85156 -23.50782,0 z M 91,391.51613 l 0,9.27343 6.75,0.41992 c 11.0818,0.68773 33.35692,-0.0939 39.25,-1.37695 7.36835,-1.6042 12.99526,-4.38411 16.89062,-8.3164 l -62.89062,0 z m 80.17969,0 c 4.4938,4.61873 11.2202,8.13788 19.22265,9.8789 17.68733,3.84807 34.21339,-0.70444 43.24219,-9.8789 l -62.46484,0 z m 75.82031,0 0,9.36523 11.05469,0 11.05664,0 -0.22071,-9.36523 -21.89062,0 z m 37.55078,0 c 1.87629,2.10791 3.59085,4.0232 4.58789,5.11523 l 3.88086,4.25 10.49024,0 10.49023,0 0,-9.36523 -29.44922,0 z m 81.35938,0 0.13281,9.36523 11.45703,0 11.45703,0 0.13281,-9.36523 -23.17968,0 z m 5.24023,22.77148 c -10.148,-0.005 -20.17167,2.80405 -27.41797,7.93945 l 54.23438,0 c -0.2046,-0.15352 -0.40901,-0.30659 -0.61914,-0.45117 -7.42189,-5.10639 -16.85445,-7.48322 -26.19727,-7.48828 z m -258.12695,0.96875 c -3.13411,2e-5 -6.25867,0.0754 -9.27344,0.23438 l -12.75,0.67187 0,6.06445 61.49219,0 c -1.7135,-1.31095 -3.81307,-2.44467 -6.25781,-3.35937 -5.86213,-2.1933 -19.6298,-3.61143 -33.21094,-3.61133 z m 61.26367,0.56641 -2.55469,5.77929 c -0.0336,0.0761 -0.24134,0.53926 -0.2793,0.625 l 30.66602,0 -2.7793,-5.8457 -12.52539,-0.2793 -12.52734,-0.27929 z m 51.71289,0.0586 0,6.3457 27.34766,0 -5.60157,-6.3457 -10.87304,0 -10.87305,0 z m 46.05664,0 -0.13086,6.3457 22.07422,0 0,-6.3457 -10.97266,0 -10.9707,0 z m 31.94336,0 0,6.3457 23.96875,0 0.0645,-6.3457 -12.01758,0 -12.01562,0 z m -213,9.3418 0,8.73828 24.00586,0 c -3.7e-4,-0.0614 -0.006,-0.1181 -0.006,-0.17969 0,-3.93257 0.36034,-4.87897 2.05859,-5.41797 0.7492,-0.23779 1.64137,-0.35976 2.62305,-0.38281 0.32723,-0.008 0.66474,-0.004 1.00977,0.01 5.71206,0.22253 13.547,3.24539 14.24023,5.9707 l 22.98047,0 c 0.0334,-1.22485 -0.0402,-2.4879 -0.25195,-3.79297 -0.28672,-1.76683 -1.02141,-3.42752 -2.15821,-4.94531 l -64.50195,0 z m 79.11914,0 c -0.79897,1.7991 -2.66579,5.98299 -3.89258,8.73828 l 20.68555,0 c 0.0291,-0.0276 0.0671,-0.0801 0.0859,-0.0801 0.016,0 0.0497,0.0546 0.0742,0.0801 l 20.62695,0 -4.1543,-8.73828 -33.42578,0 z m 55.88086,0 0,8.73828 37.70703,0 -4.08398,-4.625 -3.63086,-4.11328 -29.99219,0 z m 45.86328,0 -0.0859,4.11328 -0.0957,4.625 22.31836,0 0,-8.73828 -22.13672,0 z m 32.13672,0 0,8.73828 23.84961,0 0.0879,-8.73828 -23.9375,0 z m 36.08203,0 c -2.17562,2.11112 -3.94513,4.50156 -5.17969,7.1582 -0.24007,0.51661 -0.45255,1.04516 -0.64843,1.58008 l 24.99609,0 c 2.36792,-3.91916 6.53122,-6.07189 12.1543,-6.07617 4.42361,-0.003 5.27915,0.38854 8.71093,3.99609 l 1.97852,2.08008 22.89453,0 c 0.002,-0.0634 0.0117,-0.11206 0.0117,-0.17969 0,-2.64288 -1.52045,-5.82869 -3.86719,-8.55859 l -61.05078,0 z M 91,436.95753 l 0,5.56445 0,3.17579 61.54297,0 c 2.64311,-2.43443 4.34437,-5.38721 5.03125,-8.74024 l -24.41211,0 c -0.22496,0.18631 -0.44776,0.37619 -0.69336,0.53711 -2.68851,1.76159 -15.42954,3.15329 -16.71875,1.82617 -0.23189,-0.23871 -0.43246,-1.16193 -0.57031,-2.36328 l -24.17969,0 z m 73.89062,0 c -1.34778,3.0251 -2.47886,5.5657 -3.89453,8.74024 l 20.86914,0 c 0.59455,-1.5249 0.81584,-2.08712 1.61524,-4.14453 0.6816,-1.75426 1.33071,-3.29969 1.9043,-4.59571 l -20.49415,0 z m 23.57227,0 c 1.01212,2.48811 2.28377,5.93736 3.24023,8.74024 l 21.56836,0 c -0.57752,-1.21789 -0.97809,-2.07352 -1.60156,-3.38477 l -2.54687,-5.35547 -20.66016,0 z m 37.53711,0 0,5.42383 0,3.31641 21.7832,0 c 0.0615,-2.33899 0.1815,-3.81882 0.35157,-3.81836 0.22123,5.8e-4 1.72202,1.57672 3.70703,3.81836 l 42.1582,0 0,-3.31641 0,-5.42383 -22.37891,0 -0.12109,5.83203 -5.14844,-5.83203 -40.35156,0 z m 78,0 0,5.45508 0,3.28516 23.73047,0 0.0351,-3.56641 0.0527,-5.17383 -23.81836,0 z m 29.41602,0 c -0.59442,2.83383 -0.64085,5.81162 -0.20704,8.74024 l 24.04102,0 c -0.15892,-0.83247 -0.25,-1.66998 -0.25,-2.4961 0,-2.32405 0.31232,-4.40873 0.90234,-6.24414 l -24.48632,0 z M 91,448.69386 l 0,8.73828 24,0 0,-4.55078 2.75,-0.0644 c 14.23329,-0.33146 26.1257,-1.81974 29.875,-3.73828 0.24344,-0.12457 0.47777,-0.25492 0.71289,-0.38477 l -57.33789,0 z m 68.66406,0 c -1.4399,3.23254 -2.65284,5.98282 -3.86914,8.73828 l 63.02735,0 c -1.19643,-2.53967 -2.73438,-5.78279 -4.13282,-8.73828 l -22.01367,0 c 0.1995,0.68914 0.33666,1.23173 0.33399,1.4375 -0.005,0.4125 -2.97292,0.75 -6.59375,0.75 -3.62084,0 -6.43334,-0.37302 -6.25,-0.82812 0.0293,-0.0728 0.43783,-1.12645 0.52929,-1.35938 l -21.03125,0 z m 66.33594,0 0,8.73828 21.85156,0 -0.0469,-2.05273 c -0.0559,-2.48066 -0.065,-4.68253 -0.0547,-6.68555 l -21.75,0 z m 28.43555,0 c 0.40349,0.47533 0.78242,0.91092 1.19922,1.41016 1.88067,2.25265 4.15958,4.88921 6.32031,7.32812 l 32.04492,0 0,-8.73828 -39.56445,0 z m 49.56445,0 0,8.73828 23.61133,0 0.0879,-8.73828 -23.69922,0 z m 29.82422,0 c 0.83413,3.1346 2.22539,6.1322 4.11719,8.73828 l 64.98437,0 c 1.31195,-1.95401 2.22959,-4.07566 2.68164,-6.33594 l 0.48047,-2.40234 -21.95117,0 -3.58399,3.6875 c -4.00271,4.11849 -4.78397,4.49786 -9.21289,4.48438 -2.66156,-0.008 -5.95205,-0.57628 -7.31054,-1.26368 -2.49993,-1.26497 -4.64289,-3.8912 -5.88477,-6.9082 l -24.32031,0 z M 91,460.42824 l 0,8.45312 12,0 12,0 0,-8 0,-0.45312 -24,0 z m 63.4668,0 c -2.01944,4.59582 -3.4668,7.9366 -3.4668,8.05859 0,0.21701 4.84851,0.39453 10.77344,0.39453 l 10.77148,0 1.88477,-3.5 1.88476,-3.5 10.85938,0 10.85937,0 1.66797,3.5 1.66992,3.5 11.31446,0 c 6.22314,0 11.31445,-0.14311 11.31445,-0.31836 0,-0.089 -1.46207,-3.24458 -3.75977,-8.13476 l -65.77343,0 z m 71.5332,0 0,8.45312 11.05469,0 11.05273,0 -0.18945,-8.45312 -21.91797,0 z m 38.64648,0 c 1.11982,1.2316 2.1529,2.34952 2.95118,3.17578 l 5.09765,5.27734 10.65235,0 10.65234,0 0,-8.45312 -29.35352,0 z m 39.35352,0 0,8.51562 11.75,-0.28125 11.75,-0.28125 0.0801,-7.95312 -23.58008,0 z m 36.53516,0 c 0.73747,0.72194 1.51499,1.40269 2.34765,2.01367 4.20583,3.08607 12.76242,6.5836 19.11719,7.81445 1.375,0.26633 6.55,0.33373 11.5,0.14844 11.61024,-0.43461 21.29428,-4.17917 26.97656,-9.97656 l -59.9414,0 z"
     id="path3865"
     inkscape:connector-curvature="0" />
</svg>
