<?xml version="1.0" encoding="UTF-8" standalone="no"?>
<!-- Created with Inkscape (http://www.inkscape.org/) -->

<svg
   xmlns:dc="http://purl.org/dc/elements/1.1/"
   xmlns:cc="http://creativecommons.org/ns#"
   xmlns:rdf="http://www.w3.org/1999/02/22-rdf-syntax-ns#"
   xmlns:svg="http://www.w3.org/2000/svg"
   xmlns="http://www.w3.org/2000/svg"
   xmlns:sodipodi="http://sodipodi.sourceforge.net/DTD/sodipodi-0.dtd"
   xmlns:inkscape="http://www.inkscape.org/namespaces/inkscape"
   width="210mm"
   height="297mm"
   viewBox="0 0 744.09448819 1052.3622047"
   id="svg2"
   version="1.1"
   inkscape:version="0.91 r13725"
   sodipodi:docname="Maxlogo.svg">
  <defs
     id="defs4" />
  <sodipodi:namedview
     id="base"
     pagecolor="#ffffff"
     bordercolor="#666666"
     borderopacity="1.0"
     inkscape:pageopacity="0.0"
     inkscape:pageshadow="2"
     inkscape:zoom="0.49497475"
     inkscape:cx="179.4214"
     inkscape:cy="477.21455"
     inkscape:document-units="px"
     inkscape:current-layer="layer1"
     showgrid="false"
     inkscape:window-width="1600"
     inkscape:window-height="846"
     inkscape:window-x="0"
     inkscape:window-y="25"
     inkscape:window-maximized="1" />
  <metadata
     id="metadata7">
    <rdf:RDF>
      <cc:Work
         rdf:about="">
        <dc:format>image/svg+xml</dc:format>
        <dc:type
           rdf:resource="http://purl.org/dc/dcmitype/StillImage" />
        <dc:title></dc:title>
      </cc:Work>
    </rdf:RDF>
  </metadata>
  <g
     inkscape:label="Ebene 1"
     inkscape:groupmode="layer"
     id="layer1">
    <path
       style="fill:#000000;fill-rule:evenodd;stroke:#000000;stroke-width:1.21988499px;stroke-linecap:butt;stroke-linejoin:miter;stroke-opacity:1;fill-opacity:0.18595041"
       d="M 463.87305 83.160156 L 409.11719 133.22461 C 409.11719 133.22461 342.47575 123.57988 338.22266 126.35938 C 333.96957 129.13885 324.69336 182.68555 324.69336 182.68555 L 291.13672 217.11133 L 303.85938 321.26172 L 233.53516 306.52539 L 172.31836 301.90234 L 85.3125 352.33594 C 85.3125 352.33594 43.920223 409.73316 41.609375 417.66992 C 39.298536 425.60666 90.066406 475.97461 90.066406 475.97461 L 55.238281 522.6582 L 89.126953 587.625 L 72.416016 629.25195 L 128.54102 682.90039 L 219.26172 661.10156 L 280.74609 718.0332 L 188.28516 739.90039 L 233.125 794.85547 L 206.40039 825.53125 L 233.05664 883.80078 L 316.61133 857.04492 L 358.26953 897.29883 L 448.2207 832.80078 L 486.96484 910.66406 C 486.96484 910.66406 556.72319 842.582 565.36328 840.50586 L 593.66211 828.08203 L 632.3418 768.17188 L 606.89062 741.24609 L 668.57812 667.37109 L 619.55078 662.28125 L 690.24805 573.23633 L 618.44727 565.5332 L 676.08203 499.66211 L 636.36523 464.56445 L 701.16797 403.65039 L 615.83984 361.58594 L 680.40625 317.25 L 634.86133 266.67969 L 683.72266 199.40234 L 617.18164 169.69727 L 565.41016 93.208984 L 504.19141 133.92969 L 463.87305 83.160156 z M 437.39648 191.19141 L 433.98242 265.90039 L 397.93555 266.56836 L 401.34961 191.86133 L 437.39648 191.19141 z M 501.25977 196.58398 L 497.84375 271.29297 L 461.79688 271.96094 L 465.21289 197.25391 L 501.25977 196.58398 z M 560.86914 204.75781 L 557.45312 279.46484 L 521.40625 280.13477 L 524.82227 205.42578 L 560.86914 204.75781 z M 376.11914 323.55859 L 432.06055 329.58594 L 431.86328 356.60742 L 375.92188 350.58203 L 376.11914 323.55859 z M 446.11133 329.58789 L 502.05078 335.61523 L 501.85352 362.63672 L 445.91211 356.61133 L 446.11133 329.58789 z M 509.97266 334.98242 L 565.91406 341.00781 L 565.7168 368.0293 L 509.77539 362.00391 L 509.97266 334.98242 z M 229.11328 378.53516 A 44.977848 44.977848 0 0 1 260.74219 390.49805 A 44.977848 44.977848 0 0 1 263.18555 454.05859 A 44.977848 44.977848 0 0 1 199.625 456.50391 A 44.977848 44.977848 0 0 1 197.18164 392.94141 A 44.977848 44.977848 0 0 1 229.11328 378.53516 z M 362.88867 455.73828 L 418.83008 461.76367 L 418.63281 488.78711 L 362.69141 482.76172 L 362.88867 455.73828 z M 433.91797 466.08789 L 489.85938 472.11328 L 489.66211 499.13672 L 433.7207 493.11133 L 433.91797 466.08789 z M 500.22656 467.02734 L 556.16602 473.05273 L 555.96875 500.07422 L 500.02734 494.04883 L 500.22656 467.02734 z M 423.41016 527.6875 C 423.41016 527.6875 471.55954 715.02194 482.44727 725.10352 L 552.07031 789.57031 L 516.4375 815.35547 C 476.25126 813.41245 439.7168 702.33008 439.7168 702.33008 L 423.41016 527.6875 z M 220.9043 534.13281 A 12.938833 14.171103 42.798376 0 1 228.89258 537.3457 A 12.938833 14.171103 42.798376 0 1 228.75781 556.5332 A 12.938833 14.171103 42.798376 0 1 209.63672 558.14062 A 12.938833 14.171103 42.798376 0 1 209.77148 538.95117 A 12.938833 14.171103 42.798376 0 1 220.9043 534.13281 z M 499.23828 538.35352 A 12.322699 11.090428 42.798376 0 1 507.66797 541.88672 A 12.322699 11.090428 42.798376 0 1 509.17383 558.39648 A 12.322699 11.090428 42.798376 0 1 492.59766 558.16211 A 12.322699 11.090428 42.798376 0 1 491.0918 541.65234 A 12.322699 11.090428 42.798376 0 1 499.23828 538.35352 z M 505.98828 600.26172 A 12.938833 11.706563 42.798376 0 1 514.84961 603.95898 A 12.938833 11.706563 42.798376 0 1 516.39062 621.33984 A 12.938833 11.706563 42.798376 0 1 498.94336 621.13867 A 12.938833 11.706563 42.798376 0 1 497.40234 603.75781 A 12.938833 11.706563 42.798376 0 1 505.98828 600.26172 z M 513.19727 651.45312 A 5.5452142 6.7774844 42.798376 0 1 516.72461 652.71875 A 5.5452142 6.7774844 42.798376 0 1 516.18945 661.45898 A 5.5452142 6.7774844 42.798376 0 1 507.51562 662.66406 A 5.5452142 6.7774844 42.798376 0 1 508.05078 653.92383 A 5.5452142 6.7774844 42.798376 0 1 513.19727 651.45312 z M 400.74219 724.96484 L 433.94531 726.45117 L 435.23047 742.32031 L 402.02734 740.83398 L 400.74219 724.96484 z M 394.88281 741.90039 L 418.18359 765.60352 L 408.31445 778.09766 L 385.01562 754.39453 L 394.88281 741.90039 z M 376.32422 766.06445 L 389.31055 796.6582 L 375.54883 804.66406 L 362.5625 774.07031 L 376.32422 766.06445 z M 345.39062 768.76367 L 342.86719 801.9043 L 326.9668 802.69141 L 329.49023 769.55078 L 345.39062 768.76367 z M 311.5332 772.67969 L 309.00977 805.82227 L 293.10938 806.60938 L 295.63281 773.46875 L 311.5332 772.67969 z "
       id="path4310" />
    <path
       style="fill:#000000;fill-rule:evenodd;stroke:#000000;stroke-width:1.21988499;stroke-linecap:butt;stroke-linejoin:miter;stroke-opacity:1;fill-opacity:0.18595041"
       d="m 288.41699,622.69164 -162.95502,-19.89498 21.70487,-251.96756 206.15544,9.51424 6.63165,-54.31832 15.80887,-133.15026 213.12104,9.24646 -2.68097,111.7178 -8.90942,85.79754 -17.01238,11.11792 -3.28274,50.70162 35.2298,9.10948 -1.47437,52.37609 -25.38468,20.1597 -7.6382,164.22776 17.68033,96.98319 -64.5667,44.33775 -75.81697,-66.84446 -34.36027,58.87231 -130.94021,-3.68596 4.6894,-59.47562 86.53475,-17.27863 -24.71366,-53.11327 -46.61551,-33.08749 z"
       id="path3428"
       inkscape:connector-curvature="0"
       sodipodi:nodetypes="ccccccccccccccccccccccccc" />
  </g>
</svg>
